<svg width="532" height="532" viewBox="0 0 532 532" fill="none" xmlns="http://www.w3.org/2000/svg">
<circle cx="265.804" cy="265.804" r="257.5" transform="rotate(-1.29372 265.804 265.804)" stroke="#C9E1FF" stroke-width="5"/>
<path d="M514.5 202C406 160.221 341.5 225 306.5 253L468 420.5L497.5 371.5L518 313.5C512.5 276.5 524 205.658 514.5 202Z" fill="#C9E1FF"/>
<path d="M359 241C251.301 220.119 221.5 424 25 352.5C56.5 438.5 145.289 531.421 293 516C419 502.846 504.619 389.578 491 342.5C470 269.906 366.5 294 366.5 294C366.5 294 401.5 249.24 359 241Z" fill="#222F59"/>
<path d="M250 78.5C253.5 80.5 264.5 111.5 266.5 127C285.5 136.333 319.316 155.949 319 155C317.5 150.5 317.106 132.097 318.5 121.5C321 102.5 342.956 83.9266 354.5 77C362 72.5 354.5 63.55 349 63C343.5 62.45 342 68.5 338.5 76C335.641 82.1259 299.5 107 298.5 107C297.5 107 297.382 103.736 298.5 101.5C299.5 99.5 306.282 98.1559 309.5 92C321 70 309 58.5 309.5 58C310 57.5 321 55 323 49C324.667 44 314.793 49.2071 315.5 48.5C316.5 47.5 321.236 37.2525 317 37.9999C308.5 39.5 308 56.5 308 56.5C308 56.5 289.22 48 279.5 66C266 91 283.5 98 283.5 100C283.5 102 283 106.5 281 106.5C279 106.5 259.797 82.6519 259 71.5C257.964 57 251 58 245.5 62C239.341 66.4793 241.571 73.6833 250 78.5Z" fill="#222F59"/>
<path d="M189.703 72.6231C173.061 115.417 196.203 126.957 208.203 126.623C210.703 126.554 212.703 135.407 212.203 135.623C197.203 142.123 185.341 145.157 184.203 164.123C179.703 239.123 219.667 240.899 225.703 239.123C234.203 236.623 238.203 251.623 238.203 253.623C238.203 264.623 171.703 445.623 168.703 444.123C161.703 440.623 144.083 438.193 137.703 443.123C126.703 451.623 172.203 472.623 182.203 469.123C190.203 466.323 246.536 340.623 273.703 278.123C278.536 305.123 284.987 360.75 293.203 369.623C305.703 383.123 365.703 342.623 369.203 347.123C376.203 356.123 384.203 364.123 394.203 363.623C404.203 363.123 388.703 324.623 380.203 324.123C371.703 323.623 318.561 341.619 319.703 335.623C321.703 325.123 323.203 274.623 321.703 260.623C319.679 241.731 310.675 222.651 315.203 218.123C319.203 214.123 346.868 196.673 344.203 185.123C339.703 165.623 289.203 125.623 267.203 125.623C245.203 125.623 241.703 131.623 235.203 131.623C234.203 131.623 226.039 118.999 227.203 117.623C238.203 104.623 237.203 83.1231 237.203 83.1231C237.203 57.1231 202.148 40.6231 189.703 72.6231Z" fill="#C9E1FF"/>
<path d="M318 190C315.6 203.2 301.333 200.333 294.5 197C292.5 198.5 295 219.5 289 230.5C280.828 245.482 276 234 277 228C277.904 222.575 277 219.222 274.5 212C270 199 258.047 163.204 278.5 161.5C286 160.875 320.818 174.5 318 190Z" fill="#222F59"/>
<path d="M203.5 184C214 175.5 226.5 200.5 230.5 212C236 229 222 223.5 218.5 219.5C213.706 214.021 193.366 192.204 203.5 184Z" fill="#222F59"/>
<circle cx="265.804" cy="265.804" r="255" transform="rotate(-1.29372 265.804 265.804)" stroke="#C9E1FF" stroke-width="10"/>
</svg>
